<?xml version="1.0" encoding="utf-8"?>
<!-- Generator: Adobe Illustrator 24.1.1, SVG Export Plug-In . SVG Version: 6.00 Build 0)  -->
<svg version="1.1" id="Layer_1" xmlns="http://www.w3.org/2000/svg" xmlns:xlink="http://www.w3.org/1999/xlink" x="0px" y="0px"
	 width="34.3px" height="25.6px" viewBox="0 0 34.3 25.6" style="enable-background:new 0 0 34.3 25.6;" xml:space="preserve">
<style type="text/css">
	.st0{fill:#DC3545;}
	.st1{fill:#FFFFFF;}
</style>
<g id="edc96981-6d10-45c5-9386-d8f4fb723c41">
	<path class="st0" d="M25.3,11.1c-0.3,0-0.6-0.1-0.8-0.3l-7.9-7.9c-0.4-0.5-0.3-1.1,0.1-1.5c0.4-0.3,1-0.3,1.4,0L26,9.3
		c0.4,0.4,0.4,1.1,0,1.5C25.9,10.9,25.6,11.1,25.3,11.1z"/>
	<path class="st0" d="M17.4,11.1c0.3,0,0.6-0.1,0.8-0.3l7.9-7.9c0.4-0.5,0.3-1.1-0.1-1.5c-0.4-0.3-1-0.3-1.4,0l-7.9,7.9
		c-0.4,0.4-0.4,1.1,0,1.5C16.8,10.9,17.1,11.1,17.4,11.1z"/>
</g>
<g id="b7ac1515-d3c6-447c-841c-7bbf50c04021">
	<path class="st1" d="M34.1,2.8c-1.1-0.6-1.3,0.4-1.3,0.4l-0.2,1l-2.4,11.7H13.8L10.5,7l-1-2.8L8.9,2.6l-0.8-2C8,0.2,7.7,0,7.3,0
		H0.7C0.3,0,0,0.4,0,0.9c0,0.4,0.3,0.7,0.7,0.7l0,0h6.1l5.6,15.2l-1.5,5.8c-0.1,0.4,0.1,0.8,0.5,0.9h0.1h2.1c0.5,1.6,2.1,2.5,3.6,2
		c1-0.3,1.7-1,2-2h5.2c0.5,1.6,2.1,2.5,3.7,2s2.5-2.1,2-3.7c-0.5-1.5-2.1-2.4-3.6-2c-1,0.3-1.7,1.1-2,2h-5.3c-0.4-1.6-2.1-2.5-3.6-2
		c-1,0.3-1.8,1-2,2h-0.9l1.1-4.4h17c0.4,0,0.8-0.2,0.8-0.6l2.8-13.3C34.4,3.3,34.3,3,34.1,2.8z M27.3,21.4c0.7,0.1,1.3,0.7,1.2,1.5
		c0,0.1,0,0.2,0,0.2c-0.1,0.6-0.6,1-1.2,1.1c-0.8,0-1.4-0.6-1.4-1.4C25.9,22,26.5,21.4,27.3,21.4L27.3,21.4z M15,22.6
		c0.1-0.7,0.7-1.3,1.5-1.2c0.8,0,1.4,0.6,1.4,1.4s-0.6,1.4-1.4,1.4c-0.8,0-1.4-0.6-1.5-1.4V22.6z"/>
</g>
</svg>
