<?xml version="1.0" encoding="utf-8"?>
<!-- Generator: Adobe Illustrator 24.1.1, SVG Export Plug-In . SVG Version: 6.00 Build 0)  -->
<svg version="1.1" id="Layer_1" xmlns="http://www.w3.org/2000/svg" xmlns:xlink="http://www.w3.org/1999/xlink" x="0px" y="0px"
	 width="52.4px" height="32px" viewBox="0 0 52.4 32" style="enable-background:new 0 0 52.4 32;" xml:space="preserve">
<style type="text/css">
	.st0{fill:#DC3545;}
	.st1{fill:#FFFFFF;}
</style>
<g id="edc96981-6d10-45c5-9386-d8f4fb723c41">
	<path class="st0" d="M31.6,13.9c-0.4,0-0.8-0.1-1-0.4l-9.9-9.9c-0.5-0.6-0.4-1.4,0.1-1.9c0.5-0.4,1.3-0.4,1.8,0l9.9,9.9
		c0.5,0.5,0.5,1.4,0,1.9C32.4,13.6,32,13.9,31.6,13.9z"/>
	<path class="st0" d="M21.7,13.9c0.4,0,0.8-0.1,1-0.4l9.9-9.9C33.1,3,33,2.3,32.5,1.8c-0.5-0.4-1.3-0.4-1.8,0l-9.9,9.9
		c-0.5,0.5-0.5,1.4,0,1.9C21,13.6,21.4,13.9,21.7,13.9z"/>
</g>
<g id="b7ac1515-d3c6-447c-841c-7bbf50c04021">
	<path class="st1" d="M42.6,3.5C41.3,2.7,41,4,41,4l-0.3,1.2l-3,14.6H17.3L13.1,8.8l-1.3-3.5l-0.8-2l-1-2.5C10,0.3,9.6,0,9.1,0H0.9
		C0.4,0,0,0.5,0,1.1C0,1.6,0.4,2,0.9,2l0,0h7.6l7,19l-1.9,7.2c-0.1,0.5,0.1,1,0.6,1.1h0.1H17c0.6,2,2.6,3.1,4.5,2.5
		c1.3-0.4,2.1-1.3,2.5-2.5h6.5c0.6,2,2.6,3.1,4.6,2.5s3.1-2.6,2.5-4.6c-0.6-1.9-2.6-3-4.5-2.5c-1.2,0.4-2.1,1.4-2.5,2.5H24
		c-0.5-2-2.6-3.1-4.5-2.5c-1.3,0.4-2.3,1.3-2.5,2.5h-1.1l1.4-5.5h21.3c0.5,0,1-0.3,1-0.8L43,4.4C43,4.1,42.9,3.7,42.6,3.5z
		 M34.1,26.7c0.9,0.1,1.6,0.9,1.5,1.9c0,0.1,0,0.3,0,0.3c-0.1,0.8-0.8,1.3-1.5,1.4c-1,0-1.8-0.8-1.8-1.8
		C32.4,27.5,33.1,26.7,34.1,26.7L34.1,26.7z M18.8,28.3c0.1-0.9,0.9-1.6,1.9-1.5c1,0,1.7,0.8,1.7,1.8c0,1-0.8,1.8-1.7,1.8
		c-1,0-1.8-0.8-1.9-1.8V28.3z"/>
</g>
</svg>
