<?xml version="1.0" encoding="utf-8"?>
<!-- Generator: Adobe Illustrator 16.0.3, SVG Export Plug-In . SVG Version: 6.00 Build 0)  -->
<!DOCTYPE svg PUBLIC "-//W3C//DTD SVG 1.1//EN" "http://www.w3.org/Graphics/SVG/1.1/DTD/svg11.dtd">
<svg version="1.1" id="a9d626b2-a7f0-43ec-8804-7ce17aec8e7a"
	 xmlns="http://www.w3.org/2000/svg" xmlns:xlink="http://www.w3.org/1999/xlink" x="0px" y="0px" width="28.118px"
	 height="20.98px" viewBox="3.678 2.744 28.118 20.98" enable-background="new 3.678 2.744 28.118 20.98" xml:space="preserve">
<g id="b38f6d64-414b-4465-bdb3-5f0812de4221">
	<path fill="#FFFFFF" d="M31.653,5.105c-0.089-0.175-0.354-0.262-0.525-0.262H10.933l-0.612-1.662
		c-0.088-0.262-0.35-0.437-0.612-0.437h-5.42c-0.35,0-0.611,0.35-0.611,0.697l0,0c0,0.352,0.261,0.612,0.611,0.612h4.983
		l4.546,12.414l-1.225,4.72c-0.087,0.353,0.088,0.7,0.523,0.787h0.175h1.573c0.352,1.312,1.749,2.009,2.973,1.661
		c0.787-0.263,1.488-0.873,1.662-1.661h4.283c0.352,1.312,1.748,2.009,2.971,1.661c1.313-0.351,2.013-1.748,1.662-2.973
		c-0.351-1.313-1.748-2.012-2.974-1.661c-0.784,0.262-1.485,0.873-1.659,1.661h-4.369c-0.352-1.313-1.75-2.012-2.974-1.661
		c-0.787,0.262-1.485,0.873-1.66,1.661h-0.7l0.875-3.584h13.897c0.351,0,0.612-0.176,0.612-0.524l2.272-10.927
		C31.827,5.455,31.827,5.279,31.653,5.105z M26.055,20.229c0.611,0.175,0.963,0.785,0.875,1.396c-0.088,0.438-0.438,0.7-0.875,0.874
		c-0.611,0-1.137-0.523-1.137-1.136l0,0C24.918,20.665,25.444,20.229,26.055,20.229z M17.14,20.229c0.612,0,1.136,0.524,1.136,1.138
		c0,0.61-0.523,1.136-1.136,1.136c-0.613,0-1.224-0.524-1.224-1.136v-0.176C16.004,20.577,16.528,20.229,17.14,20.229z
		 M11.457,6.154H30.34l-2.01,9.615H14.956L11.457,6.154z"/>
</g>
</svg>
