<?xml version="1.0" encoding="utf-8"?>
<!-- Generator: Adobe Illustrator 24.1.1, SVG Export Plug-In . SVG Version: 6.00 Build 0)  -->
<svg version="1.1" id="ba9f22c2-8e44-4062-86ac-47b7bab56cd5"
	 xmlns="http://www.w3.org/2000/svg" xmlns:xlink="http://www.w3.org/1999/xlink" x="0px" y="0px" width="34.3px" height="25.6px"
	 viewBox="0 0 34.3 25.6" style="enable-background:new 0 0 34.3 25.6;" xml:space="preserve">
<style type="text/css">
	.st0{fill:#FFFFFF;}
	.st1{fill:#DC3545;}
</style>
<g id="a827c5c4-38c3-41d8-b933-80f90b72600d">
	<path class="st0" d="M34.1,2.9c-0.1-0.2-0.4-0.3-0.6-0.3H8.9l-0.7-2C8,0.2,7.7,0,7.4,0H0.8C0.3,0,0,0.4,0,0.9l0,0
		c0,0.4,0.3,0.7,0.7,0.7l0,0h6.1l5.6,15.1l-1.5,5.8c-0.1,0.4,0.1,0.8,0.5,1c0.1,0,0.1,0,0.2,0h2.1c0.4,1.6,2.1,2.5,3.6,2
		c1-0.3,1.8-1,2-2h5.2c0.4,1.6,2.1,2.5,3.6,2c1.6-0.4,2.5-2.1,2-3.6c-0.4-1.6-2.1-2.5-3.6-2l0,0c-1,0.3-1.7,1-2,2h-5.3
		c-0.4-1.6-2-2.5-3.6-2c-1,0.3-1.8,1.1-2,2h-0.9l1.1-4.4h17c0.4,0,0.8-0.2,0.8-0.6l2.7-13.4C34.4,3.3,34.3,3,34.1,2.9z M27.3,21.3
		c0.8,0.1,1.3,0.7,1.2,1.5c0,0.1,0,0.2-0.1,0.3c-0.1,0.6-0.6,1-1.2,1c-0.8,0-1.4-0.6-1.4-1.4l0,0C25.9,22,26.5,21.4,27.3,21.3
		L27.3,21.3z M16.4,21.3c0.8,0,1.4,0.6,1.4,1.4s-0.6,1.4-1.4,1.4c-0.8,0-1.4-0.6-1.5-1.4v-0.2C15.1,21.8,15.7,21.3,16.4,21.3z
		 M9.5,4.2h23l-2.4,11.7H13.8L9.5,4.2z"/>
</g>
<polygon class="st1" points="10.4,7.4 13.8,15.9 30.1,15.9 32,7.4 "/>
</svg>
