<?xml version="1.0" encoding="utf-8"?>
<!-- Generator: Adobe Illustrator 24.1.1, SVG Export Plug-In . SVG Version: 6.00 Build 0)  -->
<svg version="1.1" id="ba9f22c2-8e44-4062-86ac-47b7bab56cd5"
	 xmlns="http://www.w3.org/2000/svg" xmlns:xlink="http://www.w3.org/1999/xlink" x="0px" y="0px" width="37px" height="27.6px"
	 viewBox="0 0 37 27.6" style="enable-background:new 0 0 37 27.6;" xml:space="preserve">
<style type="text/css">
	.st0{fill:#FFFFFF;}
	.st1{fill:#DC3545;}
</style>
<g>
	<g id="a827c5c4-38c3-41d8-b933-80f90b72600d">
		<path class="st0" d="M36.8,3.1c-0.1-0.2-0.4-0.3-0.6-0.3H9.6L8.8,0.6C8.6,0.2,8.3,0,8,0H0.9C0.3,0,0,0.4,0,1l0,0
			c0,0.4,0.3,0.8,0.8,0.8l0,0h6.6l6,16.3l-1.6,6.3c-0.1,0.4,0.1,0.9,0.5,1.1c0.1,0,0.1,0,0.2,0h2.3c0.4,1.7,2.3,2.7,3.9,2.2
			c1.1-0.3,1.9-1.1,2.2-2.2h5.6c0.4,1.7,2.3,2.7,3.9,2.2c1.7-0.4,2.7-2.3,2.2-3.9c-0.4-1.7-2.3-2.7-3.9-2.2l0,0
			c-1.1,0.3-1.8,1.1-2.2,2.2h-5.7c-0.4-1.7-2.2-2.7-3.9-2.2c-1.1,0.3-1.9,1.2-2.2,2.2h-1l1.2-4.7h18.3c0.4,0,0.9-0.2,0.9-0.6L37,3.8
			C37.1,3.6,37,3.2,36.8,3.1z M29.4,23c0.9,0.1,1.4,0.8,1.3,1.6c0,0.1,0,0.2-0.1,0.3C30.5,25.5,30,26,29.3,26
			c-0.9,0-1.5-0.6-1.5-1.5l0,0C27.9,23.7,28.6,23.1,29.4,23L29.4,23z M17.7,23c0.9,0,1.5,0.6,1.5,1.5c0,0.9-0.6,1.5-1.5,1.5
			s-1.5-0.6-1.6-1.5v-0.2C16.3,23.5,16.9,23,17.7,23z M10.2,4.5H35l-2.6,12.6H14.9L10.2,4.5z"/>
	</g>
	<polygon class="st1" points="11.2,8 14.9,17.1 32.4,17.1 34.5,8 	"/>
</g>
</svg>
