<?xml version="1.0" encoding="utf-8"?>
<!-- Generator: Adobe Illustrator 24.1.1, SVG Export Plug-In . SVG Version: 6.00 Build 0)  -->
<svg version="1.1" id="b06b03d6-1d0a-4512-b49e-9cf5f658a7aa"
	 xmlns="http://www.w3.org/2000/svg" xmlns:xlink="http://www.w3.org/1999/xlink" x="0px" y="0px" width="33.7px" height="26px"
	 viewBox="0 0 33.7 26" style="enable-background:new 0 0 33.7 26;" xml:space="preserve">
<style type="text/css">
	.st0{fill:#FFFFFF;}
	.st1{fill:#DC3545;}
</style>
<path class="st0" d="M33.6,25.7L28,14.6c-0.1-0.1-0.1-0.1-0.3-0.1H23l-1.9,2c-0.1,0,4.6-0.1,5.3-0.1c0.1,0,0.1,0.1,0.3,0.1l3.4,7
	c0.1,0.1-0.1,0.3-0.3,0.3H3.6c-0.2,0-0.3-0.1-0.3-0.3l3.4-7h0.1c0.6,0,5.3,0.1,5.3,0.1l-1.9-2.2H5.6c-0.1,0-0.1,0.1-0.3,0.1L0,25.7
	C-0.1,25.8,0.2,26,0.3,26h33.4C33.6,25.8,33.7,25.7,33.6,25.7z"/>
<path class="st1" d="M16.8,0c-4.2,0-7.6,3.4-7.6,7.6l0,0c0.1,1.4,0.4,2.8,1.1,4.1c1,1.5,2.1,2.9,3.4,4.1c1.1,1.5,2.4,3.9,2.8,4.5
	c0.1,0.1,0.1,0.3,0.3,0.3s0.3-0.1,0.4-0.3c0.8-1.6,1.7-3.1,2.8-4.5c0.8-1.1,2.4-2.2,3.4-4.1c0.8-1.1,1.3-2.5,1.3-3.9
	C24.6,3.5,21.1,0,16.8,0z M16.8,11.7c-2.3,0-4.1-1.8-4.1-4.1s1.8-4.1,4.1-4.1s4.1,1.8,4.1,4.1S19.1,11.7,16.8,11.7z"/>
</svg>
